<svg xmlns="http://www.w3.org/2000/svg" viewBox="0 0 512 512" width="512" height="512">
  <!-- Definitions and filters -->
  <defs>
    <!-- Background gradient for main circle -->
    <linearGradient id="bgGradient" x1="0%" y1="0%" x2="100%" y2="100%">
      <stop offset="0%" stop-color="#171515" /> <!-- GitHub black -->
      <stop offset="100%" stop-color="#2b2b2b" /> <!-- Slightly lighter black -->
    </linearGradient>
    
    <!-- Glowing outer ring gradient -->
    <linearGradient id="ringGradient" x1="0%" y1="0%" x2="100%" y2="100%">
      <stop offset="0%" stop-color="#60A5FA" /> <!-- Blue 400 -->
      <stop offset="50%" stop-color="#3B82F6" /> <!-- Blue 500 -->
      <stop offset="100%" stop-color="#2563EB" /> <!-- Blue 600 -->
    </linearGradient>
    
    <!-- Glow filter for the ring -->
    <filter id="blueGlow" x="-15%" y="-15%" width="130%" height="130%">
      <feGaussianBlur stdDeviation="4" result="blur" />
      <feFlood flood-color="#60A5FA" flood-opacity="0.7" result="floodFill" />
      <feComposite in="floodFill" in2="blur" operator="in" result="coloredBlur" />
      <feComposite in="SourceGraphic" in2="coloredBlur" operator="over" />
    </filter>
    
    <!-- Version badge gradient -->
    <linearGradient id="badgeGradient" x1="0%" y1="0%" x2="100%" y2="100%">
      <stop offset="0%" stop-color="#3B82F6" /> <!-- Blue 500 -->
      <stop offset="100%" stop-color="#1D4ED8" /> <!-- Blue 700 -->
    </linearGradient>
    
    <!-- Shadow filter for depth -->
    <filter id="shadow" x="-20%" y="-20%" width="140%" height="140%">
      <feGaussianBlur in="SourceAlpha" stdDeviation="8" />
      <feOffset dx="0" dy="2" result="offsetblur" />
      <feComponentTransfer>
        <feFuncA type="linear" slope="0.5" />
      </feComponentTransfer>
      <feMerge>
        <feMergeNode />
        <feMergeNode in="SourceGraphic" />
      </feMerge>
    </filter>
  </defs>

  <!-- Main background circle -->
  <circle cx="256" cy="256" r="240" fill="url(#bgGradient)" filter="url(#shadow)" />
  
  <!-- Up carat at the top -->
  <g transform="translate(256, 70)">
    <!-- Up carat -->
    <path d="M-15,15 L0,0 L15,15" stroke="#FFFFFF" stroke-width="6" fill="none" stroke-linecap="round" stroke-linejoin="round" />
  </g>
  
  <!-- GitHub Octocat in center -->
  <g transform="translate(256, 256) scale(0.80)" filter="url(#shadow)">
    <!-- GitHub body in white -->
    <path d="M0 -170.68c-94.25 0-170.68 76.42-170.68 170.68 0 75.39 48.88 139.3 116.71 161.87 8.54 1.57 11.66-3.7 11.66-8.24 0-4.06-0.14-14.78-0.23-29.03-47.48 10.31-57.5-22.88-57.5-22.88-7.76-19.73-18.95-24.96-18.95-24.96-15.52-10.59 1.17-10.38 1.17-10.38 17.15 1.21 26.18 17.62 26.18 17.62 15.24 26.1 40 18.56 49.72 14.18 1.55-11.04 5.97-18.56 10.85-22.83-37.9-4.31-77.75-18.95-77.75-84.33 0-18.61 6.64-33.85 17.56-45.77-1.77-4.32-7.61-21.7 1.67-45.2 0 0 14.32-4.59 46.93 17.49 13.6-3.79 28.2-5.68 42.7-5.74 14.5 0.06 29.1 1.95 42.73 5.74 32.57-22.08 46.86-17.49 46.86-17.49 9.3 23.5 3.46 40.88 1.69 45.2 10.94 11.92 17.54 27.16 17.54 45.77 0 65.53-39.93 79.96-77.94 84.18 6.12 5.25 11.58 15.66 11.58 31.54 0 22.77-0.21 41.16-0.21 46.74 0 4.56 3.08 9.86 11.74 8.21 67.73-22.6 116.55-86.48 116.55-161.84C170.68-94.25 94.25-170.68 0-170.68z" fill="#FFFFFF" />
    
    <!-- GitHub face features -->
    <ellipse cx="-60" cy="-90" rx="18" ry="20" fill="#171515" />
    <ellipse cx="60" cy="-90" rx="18" ry="20" fill="#171515" />
  </g>
  
  <!-- Version tag at the bottom -->
  <g transform="translate(256, 400)">
    <rect x="-40" y="-20" width="80" height="40" rx="20" fill="url(#badgeGradient)" filter="url(#shadow)" />
    <text x="0" y="7" font-family="Arial, sans-serif" font-weight="bold" font-size="18" fill="#FFFFFF" text-anchor="middle">v1.0</text>
  </g>
</svg>
